<svg width="230" height="308" viewBox="0 0 230 308" fill="none" xmlns="http://www.w3.org/2000/svg">
<path d="M115 0C127.15 0 137 9.84974 137 22C137 22.6742 136.968 23.3412 136.908 24H162C164.761 24 167 26.2386 167 29V55C167 57.7614 164.761 60 162 60H68C65.2386 60 63 57.7614 63 55V29C63 26.2386 65.2386 24 68 24H93.0918C93.0324 23.3412 93 22.6742 93 22C93 9.84974 102.85 0 115 0ZM114.5 11C108.701 11 104 15.701 104 21.5C104 27.299 108.701 32 114.5 32C120.299 32 125 27.299 125 21.5C125 15.701 120.299 11 114.5 11Z" fill="#1ACCE6"/>
<path d="M205 33C218.807 33 230 44.1929 230 58V283C230 296.591 219.154 307.65 205.646 307.992L205 308H25L24.3545 307.992C11.0602 307.655 0.34475 296.94 0.0078125 283.646L0 283V58C0 44.1929 11.1929 33 25 33H51V51H25C21.134 51 18 54.134 18 58V283C18 286.866 21.134 290 25 290H205C208.866 290 212 286.866 212 283V58C212 54.134 208.866 51 205 51H179V33H205Z" fill="#1ACCE6"/>
<path d="M115 70.1895L192.5 99.6543V181.581L191 187.612L189 192.639L187 198.168L184.5 204.199L175.5 217.77L162 231.843L147.5 242.9L133.5 252.45L115.007 263.204L115 263.5L114.75 263.354L114.5 263.5L114.492 263.204L96 252.45L82 242.9L67.5 231.843L54 217.77L45 204.199L42.5 198.168L40.5 192.639L38.5 187.612L37 181.581V99.6543L114.5 70.1895V70L114.75 70.0947L115 70V70.1895ZM54 110.209V178.062L55.5 187.612L59 194.649L64.5 204.199L70.5 211.235L78 219.277L87 226.314L99.5 234.858L114.75 243.571L130 234.858L142.5 226.314L151.5 219.277L159 211.235L165 204.199L170.5 194.649L174 187.612L175.5 178.062V110.209L114.75 87.1836L54 110.209Z" fill="#1ACCE6"/>
<path d="M114.998 104.382L161 122V180L160 184.5L158.5 188.5L155.5 194L150 201.5L143 209L134 216.5L127 222L116.5 228.5L114.5 230L112.5 228.5L102 222L95 216.5L86 209L79 201.5L73.5 194L70.5 188.5L69 184.5L68 180V122L114.001 104.382L114 104L114.5 104.191L115 104L114.998 104.382ZM114 130C104.059 130 96 138.059 96 148C96 155.235 100.269 161.472 106.426 164.332L100 193.5H128.5L122.024 164.114C127.938 161.164 132 155.057 132 148C132 138.059 123.941 130 114 130Z" fill="#1ACCE6"/>
</svg>
